<?xml version="1.0" standalone="no"?>
<!DOCTYPE svg PUBLIC "-//W3C//DTD SVG 20010904//EN"
 "http://www.w3.org/TR/2001/REC-SVG-20010904/DTD/svg10.dtd">
<svg version="1.0" xmlns="http://www.w3.org/2000/svg"
 width="96.000000pt" height="96.000000pt" viewBox="0 0 96.000000 96.000000"
 preserveAspectRatio="xMidYMid meet">
<metadata>
Created by potrace 1.11, written by Peter Selinger 2001-2013
</metadata>
<g transform="translate(0.000000,96.000000) scale(0.100000,-0.100000)"
fill="#000000" stroke="none">
<path d="M0 480 l0 -480 480 0 480 0 0 480 0 480 -480 0 -480 0 0 -480z m681
318 c34 -47 41 -108 12 -108 -13 0 -14 3 -5 12 15 15 15 28 1 28 -5 0 -7 -5
-3 -12 4 -7 3 -8 -4 -4 -6 3 -9 20 -7 36 2 16 -2 34 -10 40 -11 9 -13 6 -9
-12 4 -21 4 -21 -5 -3 -4 11 -7 23 -5 27 3 4 0 9 -6 13 -5 3 -10 13 -10 21 0
21 17 9 51 -38z m-386 25 c-2 -10 -4 -20 -4 -23 -1 -3 -6 2 -12 10 -8 11 -9 8
-5 -15 3 -17 0 -41 -8 -54 l-14 -24 -6 21 c-4 12 -12 20 -17 17 -20 -13 -7 16
22 50 34 38 49 45 44 18z m-55 -97 c0 -8 6 -17 13 -20 9 -3 7 -9 -5 -19 -20
-15 -24 -37 -8 -37 16 0 12 -22 -7 -36 -16 -12 -16 -12 6 -7 18 5 22 3 16 -6
-5 -10 -2 -11 14 -6 17 5 21 2 21 -14 0 -11 8 -25 18 -30 14 -9 12 -10 -15
-11 -23 0 -33 -6 -38 -21 -6 -17 -9 -18 -16 -8 -4 8 -3 19 3 26 8 10 7 12 -5
7 -12 -4 -15 0 -13 20 2 14 -1 26 -5 26 -14 0 -10 38 4 43 9 4 9 8 -2 15 -12
9 -13 13 -1 27 10 12 10 19 2 27 -17 17 -15 38 3 38 8 0 15 -6 15 -14z m485
-112 c-1 -43 -5 -59 -20 -70 -10 -8 -14 -14 -7 -14 6 0 9 -7 6 -15 -6 -15 -25
-21 -23 -7 5 28 -4 32 -65 32 -68 0 -90 16 -64 48 11 13 13 11 18 -9 8 -32 64
-40 79 -11 6 11 7 22 4 26 -4 3 9 4 28 1 19 -3 28 -3 22 1 -16 7 -17 54 -2 54
6 0 9 7 6 14 -4 9 -1 13 6 10 8 -3 12 -25 12 -60z m-332 -53 c-3 -12 -16 -21
-36 -24 -31 -4 -31 -4 -9 11 12 8 22 23 22 34 0 16 3 18 14 9 8 -7 12 -20 9
-30z m-266 -43 c-3 -8 -6 -5 -6 6 -1 11 2 17 5 13 3 -3 4 -12 1 -19z m50 -40
c-3 -7 -5 -2 -5 12 0 14 2 19 5 13 2 -7 2 -19 0 -25z m585 -10 c-8 -8 -9 -4
-5 13 4 13 8 18 11 10 2 -7 -1 -18 -6 -23z m-515 0 c-3 -8 -6 -5 -6 6 -1 11 2
17 5 13 3 -3 4 -12 1 -19z m-59 -46 c6 -18 -15 -14 -22 4 -4 10 -1 14 6 12 6
-2 14 -10 16 -16z m582 3 c-7 -8 -17 -15 -22 -15 -6 0 -5 7 2 15 7 8 17 15 22
15 6 0 5 -7 -2 -15z m-60 -9 c0 -2 -7 -7 -16 -10 -8 -3 -12 -2 -9 4 6 10 25
14 25 6z m-195 -67 c-22 -4 -60 -8 -85 -7 -45 1 -45 1 -10 8 19 4 58 7 85 8
l50 0 -40 -9z"/>
<path d="M251 764 c0 -11 3 -14 6 -6 3 7 2 16 -1 19 -3 4 -6 -2 -5 -13z"/>
<path d="M220 723 c0 -6 8 -17 18 -24 16 -13 16 -13 2 6 -8 11 -16 22 -17 24
-2 2 -3 0 -3 -6z"/>
<path d="M703 625 c0 -8 4 -12 9 -9 5 3 6 10 3 15 -9 13 -12 11 -12 -6z"/>
<path d="M697 563 c3 -7 6 -13 8 -13 2 0 5 6 8 13 3 8 -1 14 -8 14 -7 0 -11
-6 -8 -14z"/>
</g>
</svg>
